<mxfile host="app.diagrams.net" modified="2022-05-08T06:52:19.759Z" agent="5.0 (Windows NT 10.0; WOW64) AppleWebKit/537.36 (KHTML, like Gecko) Chrome/77.0.3865.120 Safari/537.36 Core/1.77.103.400 QQBrowser/10.9.4624.400" etag="qAIQDDQDq5KhqDWaBXII" version="18.0.1" type="github">
  <diagram id="Vce2DdJyeUobDXaakt3f" name="第 1 页">
    <mxGraphModel dx="1471" dy="828" grid="1" gridSize="10" guides="1" tooltips="1" connect="1" arrows="1" fold="1" page="1" pageScale="1" pageWidth="1700" pageHeight="1100" math="0" shadow="0">
      <root>
        <mxCell id="0" />
        <mxCell id="1" parent="0" />
        <mxCell id="mjoYjnzcF-hZVxzns7M5-208" value="用户特征" style="rounded=0;whiteSpace=wrap;html=1;" parent="1" vertex="1">
          <mxGeometry x="210" y="700" width="100" height="20" as="geometry" />
        </mxCell>
        <mxCell id="mjoYjnzcF-hZVxzns7M5-209" value="物品特征" style="rounded=0;whiteSpace=wrap;html=1;" parent="1" vertex="1">
          <mxGeometry x="310" y="700" width="100" height="20" as="geometry" />
        </mxCell>
        <mxCell id="mjoYjnzcF-hZVxzns7M5-210" value="....." style="rounded=0;whiteSpace=wrap;html=1;horizontal=1;verticalAlign=middle;labelPosition=center;verticalLabelPosition=middle;align=center;fontStyle=1;fontSize=15;" parent="1" vertex="1">
          <mxGeometry x="410" y="700" width="100" height="20" as="geometry" />
        </mxCell>
        <mxCell id="mjoYjnzcF-hZVxzns7M5-212" value="&amp;nbsp;&lt;br&gt;&lt;table&gt;&lt;tbody&gt;&lt;tr&gt;&lt;td&gt;&lt;br&gt;&lt;/td&gt;&lt;td&gt;&lt;br&gt;&lt;/td&gt;&lt;td&gt;&lt;br&gt;&lt;/td&gt;&lt;td&gt;&lt;br&gt;&lt;/td&gt;&lt;td&gt;&lt;br&gt;&lt;/td&gt;&lt;td&gt;&lt;br&gt;&lt;/td&gt;&lt;td&gt;&lt;br&gt;&lt;/td&gt;&lt;/tr&gt;&lt;/tbody&gt;&lt;/table&gt;" style="rounded=0;whiteSpace=wrap;html=1;fontSize=18;fillColor=#d5e8d4;strokeColor=#82b366;" parent="1" vertex="1">
          <mxGeometry x="300" y="640" width="140" height="20" as="geometry" />
        </mxCell>
        <mxCell id="mjoYjnzcF-hZVxzns7M5-213" value="" style="whiteSpace=wrap;html=1;aspect=fixed;fontSize=18;labelBackgroundColor=#97D077;rounded=0;fillColor=#d5e8d4;strokeColor=#82b366;" parent="1" vertex="1">
          <mxGeometry x="280" y="640" width="20" height="20" as="geometry" />
        </mxCell>
        <mxCell id="mjoYjnzcF-hZVxzns7M5-214" value="" style="whiteSpace=wrap;html=1;aspect=fixed;fontSize=18;rounded=0;fillColor=#d5e8d4;strokeColor=#82b366;" parent="1" vertex="1">
          <mxGeometry x="300" y="640" width="20" height="20" as="geometry" />
        </mxCell>
        <mxCell id="mjoYjnzcF-hZVxzns7M5-215" value="" style="whiteSpace=wrap;html=1;aspect=fixed;fontSize=18;labelBackgroundColor=default;rounded=0;fillColor=#d5e8d4;strokeColor=#82b366;" parent="1" vertex="1">
          <mxGeometry x="320" y="640" width="20" height="20" as="geometry" />
        </mxCell>
        <mxCell id="mjoYjnzcF-hZVxzns7M5-216" value="" style="whiteSpace=wrap;html=1;aspect=fixed;fontSize=18;rounded=0;fillColor=#d5e8d4;strokeColor=#82b366;" parent="1" vertex="1">
          <mxGeometry x="340" y="640" width="20" height="20" as="geometry" />
        </mxCell>
        <mxCell id="mjoYjnzcF-hZVxzns7M5-217" value="" style="whiteSpace=wrap;html=1;aspect=fixed;fontSize=18;rounded=0;fillColor=#d5e8d4;strokeColor=#82b366;" parent="1" vertex="1">
          <mxGeometry x="360" y="640" width="20" height="20" as="geometry" />
        </mxCell>
        <mxCell id="mjoYjnzcF-hZVxzns7M5-218" value="" style="whiteSpace=wrap;html=1;aspect=fixed;fontSize=18;rounded=0;fillColor=#d5e8d4;strokeColor=#82b366;" parent="1" vertex="1">
          <mxGeometry x="380" y="640" width="20" height="20" as="geometry" />
        </mxCell>
        <mxCell id="mjoYjnzcF-hZVxzns7M5-219" value="" style="whiteSpace=wrap;html=1;aspect=fixed;fontSize=18;rounded=0;fillColor=#d5e8d4;strokeColor=#82b366;" parent="1" vertex="1">
          <mxGeometry x="400" y="640" width="20" height="20" as="geometry" />
        </mxCell>
        <mxCell id="mjoYjnzcF-hZVxzns7M5-220" value="" style="endArrow=classic;html=1;rounded=0;sketch=0;fontColor=#46495D;strokeColor=#000000;fillColor=#B2C9AB;" parent="1" edge="1">
          <mxGeometry width="50" height="50" relative="1" as="geometry">
            <mxPoint x="360" y="640.0000000000001" as="sourcePoint" />
            <mxPoint x="490" y="600.0000000000001" as="targetPoint" />
          </mxGeometry>
        </mxCell>
        <mxCell id="mjoYjnzcF-hZVxzns7M5-221" value="" style="endArrow=classic;html=1;rounded=0;sketch=0;fontColor=#000000;strokeColor=#000000;fillColor=#B2C9AB;" parent="1" edge="1">
          <mxGeometry width="50" height="50" relative="1" as="geometry">
            <mxPoint x="360" y="640.0000000000001" as="sourcePoint" />
            <mxPoint x="220" y="600.0000000000001" as="targetPoint" />
            <Array as="points" />
          </mxGeometry>
        </mxCell>
        <mxCell id="mjoYjnzcF-hZVxzns7M5-222" value="Expert1" style="rounded=0;whiteSpace=wrap;html=1;labelBackgroundColor=#FFFFFF;sketch=0;fontColor=#000000;strokeColor=#000000;fillColor=#FFFFFF;fontSize=16;" parent="1" vertex="1">
          <mxGeometry x="170" y="560" width="100" height="40" as="geometry" />
        </mxCell>
        <mxCell id="mjoYjnzcF-hZVxzns7M5-223" value="Shared Expert" style="rounded=0;whiteSpace=wrap;html=1;labelBackgroundColor=#FFFFFF;sketch=0;fontColor=#000000;strokeColor=#000000;fillColor=#FFFFFF;fontSize=15;" parent="1" vertex="1">
          <mxGeometry x="310" y="560" width="100" height="40" as="geometry" />
        </mxCell>
        <mxCell id="mjoYjnzcF-hZVxzns7M5-224" value="ExpertN" style="rounded=0;whiteSpace=wrap;html=1;labelBackgroundColor=#FFFFFF;sketch=0;fontColor=#000000;strokeColor=#000000;fillColor=#FFFFFF;fontSize=15;" parent="1" vertex="1">
          <mxGeometry x="450" y="560" width="100" height="40" as="geometry" />
        </mxCell>
        <mxCell id="mjoYjnzcF-hZVxzns7M5-225" value="..." style="text;html=1;align=center;verticalAlign=middle;resizable=0;points=[];autosize=1;strokeColor=none;fillColor=none;fontColor=#000000;fontSize=18;fontStyle=1;rounded=0;" parent="1" vertex="1">
          <mxGeometry x="415" y="565" width="30" height="30" as="geometry" />
        </mxCell>
        <mxCell id="mjoYjnzcF-hZVxzns7M5-226" value="" style="endArrow=classic;html=1;rounded=0;sketch=0;fontSize=18;fontColor=#000000;strokeColor=#000000;fillColor=#B2C9AB;entryX=0.5;entryY=1;entryDx=0;entryDy=0;" parent="1" target="mjoYjnzcF-hZVxzns7M5-223" edge="1">
          <mxGeometry width="50" height="50" relative="1" as="geometry">
            <mxPoint x="360" y="640.0000000000001" as="sourcePoint" />
            <mxPoint x="760" y="470" as="targetPoint" />
          </mxGeometry>
        </mxCell>
        <mxCell id="mjoYjnzcF-hZVxzns7M5-227" style="edgeStyle=orthogonalEdgeStyle;sketch=0;orthogonalLoop=1;jettySize=auto;html=1;fontSize=19;fontColor=#000000;strokeColor=#000000;fillColor=#B2C9AB;exitX=0;exitY=0.5;exitDx=0;exitDy=0;entryX=0;entryY=0.5;entryDx=0;entryDy=0;rounded=0;" parent="1" source="mjoYjnzcF-hZVxzns7M5-213" target="mjoYjnzcF-hZVxzns7M5-231" edge="1">
          <mxGeometry relative="1" as="geometry">
            <mxPoint x="270" y="480" as="targetPoint" />
            <mxPoint x="160" y="630" as="sourcePoint" />
            <Array as="points">
              <mxPoint x="110" y="650" />
              <mxPoint x="110" y="480" />
            </Array>
          </mxGeometry>
        </mxCell>
        <mxCell id="mjoYjnzcF-hZVxzns7M5-228" value="" style="rounded=1;whiteSpace=wrap;html=1;labelBackgroundColor=#FFFFFF;sketch=0;fontSize=18;fontColor=#000000;strokeColor=#000000;fillColor=none;dashed=1;strokeWidth=2;" parent="1" vertex="1">
          <mxGeometry x="160" y="545" width="400" height="70" as="geometry" />
        </mxCell>
        <mxCell id="mjoYjnzcF-hZVxzns7M5-229" value="" style="endArrow=classic;html=1;sketch=0;fontSize=18;fontColor=#000000;strokeColor=#000000;fillColor=#B2C9AB;exitX=0.81;exitY=0;exitDx=0;exitDy=0;exitPerimeter=0;" parent="1" source="mjoYjnzcF-hZVxzns7M5-228" edge="1">
          <mxGeometry width="50" height="50" relative="1" as="geometry">
            <mxPoint x="370" y="530" as="sourcePoint" />
            <mxPoint x="370" y="500" as="targetPoint" />
          </mxGeometry>
        </mxCell>
        <mxCell id="mjoYjnzcF-hZVxzns7M5-230" value="" style="endArrow=classic;html=1;sketch=0;fontSize=18;fontColor=#000000;strokeColor=#000000;fillColor=#B2C9AB;exitX=0.189;exitY=-0.041;exitDx=0;exitDy=0;exitPerimeter=0;" parent="1" source="mjoYjnzcF-hZVxzns7M5-228" edge="1">
          <mxGeometry width="50" height="50" relative="1" as="geometry">
            <mxPoint x="370" y="500" as="sourcePoint" />
            <mxPoint x="350" y="500" as="targetPoint" />
          </mxGeometry>
        </mxCell>
        <mxCell id="mjoYjnzcF-hZVxzns7M5-231" value="&lt;font style=&quot;font-size: 19px&quot;&gt;MultigateMerge&lt;/font&gt;" style="rounded=0;whiteSpace=wrap;html=1;labelBackgroundColor=#FFFFFF;sketch=0;fontSize=18;fontColor=#000000;strokeColor=#000000;fillColor=default;fontStyle=0" parent="1" vertex="1">
          <mxGeometry x="280" y="460" width="160" height="40" as="geometry" />
        </mxCell>
        <mxCell id="mjoYjnzcF-hZVxzns7M5-232" value="" style="endArrow=classic;html=1;rounded=0;sketch=0;fontSize=19;fontColor=#000000;strokeColor=#000000;fillColor=#B2C9AB;entryX=0.5;entryY=1;entryDx=0;entryDy=0;exitX=0.938;exitY=0;exitDx=0;exitDy=0;exitPerimeter=0;" parent="1" source="mjoYjnzcF-hZVxzns7M5-231" target="mjoYjnzcF-hZVxzns7M5-234" edge="1">
          <mxGeometry width="50" height="50" relative="1" as="geometry">
            <mxPoint x="430" y="450" as="sourcePoint" />
            <mxPoint x="450" y="410" as="targetPoint" />
          </mxGeometry>
        </mxCell>
        <mxCell id="mjoYjnzcF-hZVxzns7M5-233" value="" style="ellipse;whiteSpace=wrap;html=1;aspect=fixed;labelBackgroundColor=#FFFFFF;sketch=0;fontSize=19;fontColor=#000000;strokeColor=#000000;fillColor=#A9C4EB;" parent="1" vertex="1">
          <mxGeometry x="280" y="380" width="30" height="30" as="geometry" />
        </mxCell>
        <mxCell id="mjoYjnzcF-hZVxzns7M5-234" value="" style="ellipse;whiteSpace=wrap;html=1;aspect=fixed;labelBackgroundColor=#FFFFFF;sketch=0;fontSize=19;fontColor=#000000;strokeColor=#000000;fillColor=#FFB570;" parent="1" vertex="1">
          <mxGeometry x="415" y="380" width="30" height="30" as="geometry" />
        </mxCell>
        <mxCell id="mjoYjnzcF-hZVxzns7M5-235" value="PCTR" style="text;html=1;align=center;verticalAlign=middle;resizable=0;points=[];autosize=1;strokeColor=none;fillColor=none;fontSize=18;fontColor=#000000;" parent="1" vertex="1">
          <mxGeometry x="220" y="380" width="60" height="30" as="geometry" />
        </mxCell>
        <mxCell id="mjoYjnzcF-hZVxzns7M5-236" value="PCVR" style="text;html=1;align=center;verticalAlign=middle;resizable=0;points=[];autosize=1;strokeColor=none;fillColor=none;fontSize=18;fontColor=#000000;" parent="1" vertex="1">
          <mxGeometry x="440" y="380" width="70" height="30" as="geometry" />
        </mxCell>
        <mxCell id="mjoYjnzcF-hZVxzns7M5-237" value="" style="endArrow=classic;html=1;rounded=0;sketch=0;fontSize=18;fontColor=#000000;strokeColor=#000000;fillColor=#B2C9AB;entryX=0.5;entryY=1;entryDx=0;entryDy=0;" parent="1" target="mjoYjnzcF-hZVxzns7M5-233" edge="1">
          <mxGeometry width="50" height="50" relative="1" as="geometry">
            <mxPoint x="295" y="460" as="sourcePoint" />
            <mxPoint x="300" y="420" as="targetPoint" />
          </mxGeometry>
        </mxCell>
        <mxCell id="mjoYjnzcF-hZVxzns7M5-239" value="" style="endArrow=classic;html=1;rounded=0;sketch=0;fontSize=18;fontColor=#000000;strokeColor=#000000;fillColor=#B2C9AB;" parent="1" edge="1">
          <mxGeometry width="50" height="50" relative="1" as="geometry">
            <mxPoint x="310" y="380" as="sourcePoint" />
            <mxPoint x="370" y="340" as="targetPoint" />
          </mxGeometry>
        </mxCell>
        <mxCell id="mjoYjnzcF-hZVxzns7M5-241" value="" style="endArrow=classic;html=1;rounded=0;sketch=0;fontSize=18;fontColor=#000000;strokeColor=#000000;fillColor=#B2C9AB;exitX=0.5;exitY=0;exitDx=0;exitDy=0;" parent="1" source="mjoYjnzcF-hZVxzns7M5-234" edge="1">
          <mxGeometry width="50" height="50" relative="1" as="geometry">
            <mxPoint x="400" y="390" as="sourcePoint" />
            <mxPoint x="370" y="340" as="targetPoint" />
          </mxGeometry>
        </mxCell>
        <mxCell id="mjoYjnzcF-hZVxzns7M5-243" value="教师模型输出购买率&lt;br&gt;PCTCVR" style="text;html=1;align=center;verticalAlign=middle;resizable=0;points=[];autosize=1;strokeColor=none;fillColor=none;fontSize=18;fontColor=#000000;" parent="1" vertex="1">
          <mxGeometry x="285" y="250" width="180" height="50" as="geometry" />
        </mxCell>
        <mxCell id="mjoYjnzcF-hZVxzns7M5-249" value="" style="endArrow=none;html=1;rounded=0;fontSize=18;" parent="1" edge="1">
          <mxGeometry width="50" height="50" relative="1" as="geometry">
            <mxPoint x="359.4999999999998" y="690" as="sourcePoint" />
            <mxPoint x="359.9999999999998" y="689.9494949494951" as="targetPoint" />
            <Array as="points" />
          </mxGeometry>
        </mxCell>
        <mxCell id="mjoYjnzcF-hZVxzns7M5-254" value="" style="endArrow=classic;html=1;rounded=0;sketch=0;fontSize=15;fontColor=#000000;strokeColor=#000000;fillColor=#B2C9AB;exitX=0.5;exitY=0;exitDx=0;exitDy=0;entryX=0;entryY=1;entryDx=0;entryDy=0;entryPerimeter=0;" parent="1" source="mjoYjnzcF-hZVxzns7M5-209" target="mjoYjnzcF-hZVxzns7M5-217" edge="1">
          <mxGeometry width="50" height="50" relative="1" as="geometry">
            <mxPoint x="340" y="710" as="sourcePoint" />
            <mxPoint x="360" y="670" as="targetPoint" />
          </mxGeometry>
        </mxCell>
        <mxCell id="mjoYjnzcF-hZVxzns7M5-255" value="Emeddingt" style="text;html=1;align=center;verticalAlign=middle;resizable=0;points=[];autosize=1;strokeColor=none;fillColor=none;fontSize=16;fontColor=#000000;" parent="1" vertex="1">
          <mxGeometry x="260" y="670" width="90" height="20" as="geometry" />
        </mxCell>
        <mxCell id="mjoYjnzcF-hZVxzns7M5-256" value="&lt;font style=&quot;font-size: 11px;&quot;&gt;用户特征&lt;/font&gt;" style="rounded=0;whiteSpace=wrap;html=1;labelBackgroundColor=#FFFFFF;sketch=0;fontSize=11;fontColor=#000000;strokeColor=#000000;fillColor=default;" parent="1" vertex="1">
          <mxGeometry x="650" y="700" width="100" height="20" as="geometry" />
        </mxCell>
        <mxCell id="mjoYjnzcF-hZVxzns7M5-257" value="物品特征" style="rounded=0;whiteSpace=wrap;html=1;labelBackgroundColor=#FFFFFF;sketch=0;fontSize=12;fontColor=#000000;strokeColor=#000000;fillColor=default;" parent="1" vertex="1">
          <mxGeometry x="750" y="700" width="100" height="20" as="geometry" />
        </mxCell>
        <mxCell id="mjoYjnzcF-hZVxzns7M5-258" value="......" style="rounded=0;whiteSpace=wrap;html=1;labelBackgroundColor=#FFFFFF;sketch=0;fontSize=15;fontColor=#000000;strokeColor=#000000;fillColor=default;fontStyle=1" parent="1" vertex="1">
          <mxGeometry x="850" y="700" width="100" height="20" as="geometry" />
        </mxCell>
        <mxCell id="mjoYjnzcF-hZVxzns7M5-259" value="" style="endArrow=classic;html=1;rounded=0;sketch=0;fontSize=15;fontColor=#000000;strokeColor=#000000;fillColor=#B2C9AB;exitX=0.605;exitY=-0.15;exitDx=0;exitDy=0;exitPerimeter=0;entryX=0.5;entryY=1;entryDx=0;entryDy=0;" parent="1" source="mjoYjnzcF-hZVxzns7M5-257" target="mjoYjnzcF-hZVxzns7M5-264" edge="1">
          <mxGeometry width="50" height="50" relative="1" as="geometry">
            <mxPoint x="810" y="690" as="sourcePoint" />
            <mxPoint x="810" y="670" as="targetPoint" />
          </mxGeometry>
        </mxCell>
        <mxCell id="mjoYjnzcF-hZVxzns7M5-261" value="" style="whiteSpace=wrap;html=1;aspect=fixed;labelBackgroundColor=#FFFFFF;sketch=0;fontSize=15;strokeColor=#82b366;fillColor=#d5e8d4;" parent="1" vertex="1">
          <mxGeometry x="740" y="640" width="20" height="20" as="geometry" />
        </mxCell>
        <mxCell id="mjoYjnzcF-hZVxzns7M5-262" value="" style="whiteSpace=wrap;html=1;aspect=fixed;labelBackgroundColor=#FFFFFF;sketch=0;fontSize=15;strokeColor=#82b366;fillColor=#d5e8d4;" parent="1" vertex="1">
          <mxGeometry x="760" y="640" width="20" height="20" as="geometry" />
        </mxCell>
        <mxCell id="mjoYjnzcF-hZVxzns7M5-263" value="" style="whiteSpace=wrap;html=1;aspect=fixed;labelBackgroundColor=#FFFFFF;sketch=0;fontSize=15;strokeColor=#82b366;fillColor=#d5e8d4;" parent="1" vertex="1">
          <mxGeometry x="780" y="640" width="20" height="20" as="geometry" />
        </mxCell>
        <mxCell id="mjoYjnzcF-hZVxzns7M5-264" value="" style="whiteSpace=wrap;html=1;aspect=fixed;labelBackgroundColor=#FFFFFF;sketch=0;fontSize=15;strokeColor=#82b366;fillColor=#d5e8d4;" parent="1" vertex="1">
          <mxGeometry x="800" y="640" width="20" height="20" as="geometry" />
        </mxCell>
        <mxCell id="mjoYjnzcF-hZVxzns7M5-266" value="" style="whiteSpace=wrap;html=1;aspect=fixed;labelBackgroundColor=#FFFFFF;sketch=0;fontSize=15;strokeColor=#82b366;fillColor=#d5e8d4;" parent="1" vertex="1">
          <mxGeometry x="840" y="640" width="20" height="20" as="geometry" />
        </mxCell>
        <mxCell id="mjoYjnzcF-hZVxzns7M5-267" value="" style="whiteSpace=wrap;html=1;aspect=fixed;labelBackgroundColor=#FFFFFF;sketch=0;fontSize=15;strokeColor=#82b366;fillColor=#d5e8d4;" parent="1" vertex="1">
          <mxGeometry x="860" y="640" width="20" height="20" as="geometry" />
        </mxCell>
        <mxCell id="SLGdrvwB5BfjY_QuqWB5-2" style="edgeStyle=orthogonalEdgeStyle;rounded=0;orthogonalLoop=1;jettySize=auto;html=1;exitX=1;exitY=0.5;exitDx=0;exitDy=0;entryX=0.5;entryY=1;entryDx=0;entryDy=0;" parent="1" source="mjoYjnzcF-hZVxzns7M5-268" target="mjoYjnzcF-hZVxzns7M5-348" edge="1">
          <mxGeometry relative="1" as="geometry">
            <mxPoint x="1160" y="650" as="targetPoint" />
          </mxGeometry>
        </mxCell>
        <mxCell id="mjoYjnzcF-hZVxzns7M5-268" value="" style="whiteSpace=wrap;html=1;aspect=fixed;labelBackgroundColor=#FFFFFF;sketch=0;fontSize=15;strokeColor=#82b366;fillColor=#d5e8d4;" parent="1" vertex="1">
          <mxGeometry x="880" y="640" width="20" height="20" as="geometry" />
        </mxCell>
        <mxCell id="mjoYjnzcF-hZVxzns7M5-271" value="" style="whiteSpace=wrap;html=1;aspect=fixed;labelBackgroundColor=#FFFFFF;sketch=0;fontSize=15;strokeColor=#82b366;fillColor=#d5e8d4;" parent="1" vertex="1">
          <mxGeometry x="820" y="640" width="20" height="20" as="geometry" />
        </mxCell>
        <mxCell id="mjoYjnzcF-hZVxzns7M5-273" value="Emedding" style="text;html=1;align=center;verticalAlign=middle;resizable=0;points=[];autosize=1;strokeColor=none;fillColor=none;fontSize=15;fontColor=#000000;" parent="1" vertex="1">
          <mxGeometry x="710" y="670" width="80" height="20" as="geometry" />
        </mxCell>
        <mxCell id="mjoYjnzcF-hZVxzns7M5-275" value="" style="endArrow=classic;html=1;rounded=0;sketch=0;fontSize=15;fontColor=#000000;strokeColor=#000000;fillColor=#B2C9AB;" parent="1" edge="1">
          <mxGeometry width="50" height="50" relative="1" as="geometry">
            <mxPoint x="820" y="640" as="sourcePoint" />
            <mxPoint x="940" y="580" as="targetPoint" />
          </mxGeometry>
        </mxCell>
        <mxCell id="mjoYjnzcF-hZVxzns7M5-276" value="" style="endArrow=classic;html=1;rounded=0;sketch=0;fontSize=15;fontColor=#000000;strokeColor=#000000;fillColor=#B2C9AB;exitX=0;exitY=0;exitDx=0;exitDy=0;entryX=0.5;entryY=1;entryDx=0;entryDy=0;" parent="1" source="mjoYjnzcF-hZVxzns7M5-271" target="mjoYjnzcF-hZVxzns7M5-305" edge="1">
          <mxGeometry width="50" height="50" relative="1" as="geometry">
            <mxPoint x="790" y="640" as="sourcePoint" />
            <mxPoint x="760" y="590" as="targetPoint" />
          </mxGeometry>
        </mxCell>
        <mxCell id="mjoYjnzcF-hZVxzns7M5-277" value="" style="endArrow=classic;html=1;rounded=0;sketch=0;fontSize=15;fontColor=#000000;strokeColor=#000000;fillColor=#B2C9AB;" parent="1" edge="1">
          <mxGeometry width="50" height="50" relative="1" as="geometry">
            <mxPoint x="820" y="640" as="sourcePoint" />
            <mxPoint x="820" y="580" as="targetPoint" />
          </mxGeometry>
        </mxCell>
        <mxCell id="mjoYjnzcF-hZVxzns7M5-278" value="" style="whiteSpace=wrap;html=1;aspect=fixed;labelBackgroundColor=#FFFFFF;sketch=0;fontSize=15;strokeColor=#d79b00;fillColor=#ffe6cc;" parent="1" vertex="1">
          <mxGeometry x="680" y="560" width="20" height="20" as="geometry" />
        </mxCell>
        <mxCell id="mjoYjnzcF-hZVxzns7M5-279" value="" style="whiteSpace=wrap;html=1;aspect=fixed;labelBackgroundColor=#FFFFFF;sketch=0;fontSize=15;strokeColor=#d79b00;fillColor=#ffe6cc;" parent="1" vertex="1">
          <mxGeometry x="700" y="560" width="20" height="20" as="geometry" />
        </mxCell>
        <mxCell id="mjoYjnzcF-hZVxzns7M5-280" value="" style="whiteSpace=wrap;html=1;aspect=fixed;labelBackgroundColor=#FFFFFF;sketch=0;fontSize=15;strokeColor=#d79b00;fillColor=#ffe6cc;" parent="1" vertex="1">
          <mxGeometry x="720" y="560" width="20" height="20" as="geometry" />
        </mxCell>
        <mxCell id="mjoYjnzcF-hZVxzns7M5-281" value="" style="whiteSpace=wrap;html=1;aspect=fixed;labelBackgroundColor=#FFFFFF;sketch=0;fontSize=15;strokeColor=#d79b00;fillColor=#ffe6cc;" parent="1" vertex="1">
          <mxGeometry x="740" y="560" width="20" height="20" as="geometry" />
        </mxCell>
        <mxCell id="mjoYjnzcF-hZVxzns7M5-282" value="" style="whiteSpace=wrap;html=1;aspect=fixed;labelBackgroundColor=#FFFFFF;sketch=0;fontSize=15;strokeColor=#d79b00;fillColor=#ffe6cc;" parent="1" vertex="1">
          <mxGeometry x="660" y="560" width="20" height="20" as="geometry" />
        </mxCell>
        <mxCell id="mjoYjnzcF-hZVxzns7M5-306" style="edgeStyle=orthogonalEdgeStyle;rounded=0;sketch=0;orthogonalLoop=1;jettySize=auto;html=1;exitX=1;exitY=0.75;exitDx=0;exitDy=0;entryX=-0.5;entryY=0.75;entryDx=0;entryDy=0;entryPerimeter=0;fontSize=18;fontColor=#000000;strokeColor=#000000;fillColor=#B2C9AB;" parent="1" source="mjoYjnzcF-hZVxzns7M5-283" target="mjoYjnzcF-hZVxzns7M5-284" edge="1">
          <mxGeometry relative="1" as="geometry" />
        </mxCell>
        <mxCell id="mjoYjnzcF-hZVxzns7M5-283" value="" style="whiteSpace=wrap;html=1;aspect=fixed;labelBackgroundColor=#FFFFFF;sketch=0;fontSize=15;strokeColor=#b85450;fillColor=#f8cecc;" parent="1" vertex="1">
          <mxGeometry x="800" y="560" width="20" height="20" as="geometry" />
        </mxCell>
        <mxCell id="mjoYjnzcF-hZVxzns7M5-284" value="" style="whiteSpace=wrap;html=1;aspect=fixed;labelBackgroundColor=#FFFFFF;sketch=0;fontSize=15;strokeColor=#b85450;fillColor=#f8cecc;" parent="1" vertex="1">
          <mxGeometry x="820" y="560" width="20" height="20" as="geometry" />
        </mxCell>
        <mxCell id="mjoYjnzcF-hZVxzns7M5-285" value="" style="whiteSpace=wrap;html=1;aspect=fixed;labelBackgroundColor=#FFFFFF;sketch=0;fontSize=15;strokeColor=#b85450;fillColor=#f8cecc;" parent="1" vertex="1">
          <mxGeometry x="840" y="560" width="20" height="20" as="geometry" />
        </mxCell>
        <mxCell id="mjoYjnzcF-hZVxzns7M5-286" value="" style="whiteSpace=wrap;html=1;aspect=fixed;labelBackgroundColor=#FFFFFF;sketch=0;fontSize=15;strokeColor=#b85450;fillColor=#f8cecc;" parent="1" vertex="1">
          <mxGeometry x="860" y="560" width="20" height="20" as="geometry" />
        </mxCell>
        <mxCell id="mjoYjnzcF-hZVxzns7M5-287" value="" style="whiteSpace=wrap;html=1;aspect=fixed;labelBackgroundColor=#FFFFFF;sketch=0;fontSize=15;strokeColor=#b85450;fillColor=#f8cecc;" parent="1" vertex="1">
          <mxGeometry x="780" y="560" width="20" height="20" as="geometry" />
        </mxCell>
        <mxCell id="mjoYjnzcF-hZVxzns7M5-288" value="" style="whiteSpace=wrap;html=1;aspect=fixed;labelBackgroundColor=#FFFFFF;sketch=0;fontSize=15;fontColor=#333333;strokeColor=#666666;fillColor=#f5f5f5;" parent="1" vertex="1">
          <mxGeometry x="900" y="560" width="20" height="20" as="geometry" />
        </mxCell>
        <mxCell id="mjoYjnzcF-hZVxzns7M5-289" value="" style="whiteSpace=wrap;html=1;aspect=fixed;labelBackgroundColor=#FFFFFF;sketch=0;fontSize=15;fontColor=#333333;strokeColor=#666666;fillColor=#f5f5f5;" parent="1" vertex="1">
          <mxGeometry x="920" y="560" width="20" height="20" as="geometry" />
        </mxCell>
        <mxCell id="mjoYjnzcF-hZVxzns7M5-291" value="" style="whiteSpace=wrap;html=1;aspect=fixed;labelBackgroundColor=#FFFFFF;sketch=0;fontSize=15;fontColor=#333333;strokeColor=#666666;fillColor=#f5f5f5;" parent="1" vertex="1">
          <mxGeometry x="940" y="560" width="20" height="20" as="geometry" />
        </mxCell>
        <mxCell id="mjoYjnzcF-hZVxzns7M5-292" value="" style="whiteSpace=wrap;html=1;aspect=fixed;labelBackgroundColor=#FFFFFF;sketch=0;fontSize=15;fontColor=#333333;strokeColor=#666666;fillColor=#f5f5f5;" parent="1" vertex="1">
          <mxGeometry x="960" y="560" width="20" height="20" as="geometry" />
        </mxCell>
        <mxCell id="mjoYjnzcF-hZVxzns7M5-293" value="" style="whiteSpace=wrap;html=1;aspect=fixed;labelBackgroundColor=#FFFFFF;sketch=0;fontSize=15;fontColor=#333333;strokeColor=#666666;fillColor=#f5f5f5;" parent="1" vertex="1">
          <mxGeometry x="980" y="560" width="20" height="20" as="geometry" />
        </mxCell>
        <mxCell id="mjoYjnzcF-hZVxzns7M5-294" value="" style="ellipse;whiteSpace=wrap;html=1;aspect=fixed;labelBackgroundColor=#FFFFFF;sketch=0;fontSize=15;strokeColor=#9673a6;fillColor=#e1d5e7;" parent="1" vertex="1">
          <mxGeometry x="760" y="310" width="30" height="30" as="geometry" />
        </mxCell>
        <mxCell id="mjoYjnzcF-hZVxzns7M5-295" value="学生模型蒸馏学习购买率&lt;br&gt;PCTCVR" style="text;html=1;align=center;verticalAlign=middle;resizable=0;points=[];autosize=1;strokeColor=none;fillColor=none;fontSize=18;fontColor=#000000;" parent="1" vertex="1">
          <mxGeometry x="680" y="250" width="210" height="50" as="geometry" />
        </mxCell>
        <mxCell id="mjoYjnzcF-hZVxzns7M5-297" value="" style="endArrow=classic;html=1;rounded=0;sketch=0;fontSize=18;fontColor=#000000;strokeColor=#000000;fillColor=#B2C9AB;entryX=0.5;entryY=1;entryDx=0;entryDy=0;" parent="1" target="mjoYjnzcF-hZVxzns7M5-294" edge="1">
          <mxGeometry width="50" height="50" relative="1" as="geometry">
            <mxPoint x="710" y="520" as="sourcePoint" />
            <mxPoint x="710" y="510" as="targetPoint" />
          </mxGeometry>
        </mxCell>
        <mxCell id="mjoYjnzcF-hZVxzns7M5-298" value="" style="endArrow=classic;html=1;rounded=0;sketch=0;fontSize=18;fontColor=#000000;strokeColor=#000000;fillColor=#B2C9AB;exitX=0.5;exitY=0;exitDx=0;exitDy=0;entryX=0.5;entryY=1;entryDx=0;entryDy=0;" parent="1" source="SLGdrvwB5BfjY_QuqWB5-40" target="mjoYjnzcF-hZVxzns7M5-294" edge="1">
          <mxGeometry width="50" height="50" relative="1" as="geometry">
            <mxPoint x="790" y="560" as="sourcePoint" />
            <mxPoint x="760" y="470" as="targetPoint" />
          </mxGeometry>
        </mxCell>
        <mxCell id="mjoYjnzcF-hZVxzns7M5-300" value="" style="endArrow=classic;html=1;rounded=0;sketch=0;fontSize=18;fontColor=#000000;strokeColor=#000000;fillColor=#B2C9AB;entryX=0.5;entryY=1;entryDx=0;entryDy=0;exitX=0.75;exitY=0;exitDx=0;exitDy=0;" parent="1" source="SLGdrvwB5BfjY_QuqWB5-45" target="mjoYjnzcF-hZVxzns7M5-301" edge="1">
          <mxGeometry width="50" height="50" relative="1" as="geometry">
            <mxPoint x="960" y="560" as="sourcePoint" />
            <mxPoint x="890" y="460" as="targetPoint" />
          </mxGeometry>
        </mxCell>
        <mxCell id="mjoYjnzcF-hZVxzns7M5-301" value="" style="ellipse;whiteSpace=wrap;html=1;aspect=fixed;labelBackgroundColor=#FFFFFF;sketch=0;fontSize=18;fontColor=#000000;strokeColor=#000000;fillColor=#A9C4EB;" parent="1" vertex="1">
          <mxGeometry x="870" y="380" width="30" height="30" as="geometry" />
        </mxCell>
        <mxCell id="mjoYjnzcF-hZVxzns7M5-302" value="PCTR&lt;br&gt;拟合点击率" style="text;html=1;align=center;verticalAlign=middle;resizable=0;points=[];autosize=1;strokeColor=none;fillColor=none;fontSize=18;fontColor=#000000;" parent="1" vertex="1">
          <mxGeometry x="895" y="370" width="110" height="50" as="geometry" />
        </mxCell>
        <mxCell id="mjoYjnzcF-hZVxzns7M5-303" value="" style="endArrow=classic;html=1;rounded=0;sketch=0;fontSize=18;fontColor=#000000;strokeColor=#000000;fillColor=#B2C9AB;entryX=0.5;entryY=1;entryDx=0;entryDy=0;" parent="1" target="mjoYjnzcF-hZVxzns7M5-301" edge="1">
          <mxGeometry width="50" height="50" relative="1" as="geometry">
            <mxPoint x="720" y="520" as="sourcePoint" />
            <mxPoint x="880" y="400" as="targetPoint" />
          </mxGeometry>
        </mxCell>
        <mxCell id="mjoYjnzcF-hZVxzns7M5-305" value="" style="rounded=1;whiteSpace=wrap;html=1;labelBackgroundColor=#FFFFFF;sketch=0;fontSize=18;fontColor=#000000;strokeColor=#67AB9F;fillColor=none;arcSize=34;dashed=1;strokeWidth=1;" parent="1" vertex="1">
          <mxGeometry x="580" y="500" width="190" height="90" as="geometry" />
        </mxCell>
        <mxCell id="mjoYjnzcF-hZVxzns7M5-308" value="" style="rounded=1;whiteSpace=wrap;html=1;dashed=1;labelBackgroundColor=#FFFFFF;sketch=0;fontSize=18;fontColor=#000000;strokeColor=#FFB570;fillColor=none;strokeWidth=1;" parent="1" vertex="1">
          <mxGeometry x="770" y="500" width="330" height="90" as="geometry" />
        </mxCell>
        <mxCell id="mjoYjnzcF-hZVxzns7M5-315" value="KL Loss" style="text;html=1;align=center;verticalAlign=middle;resizable=0;points=[];autosize=1;strokeColor=#d6b656;fillColor=#fff2cc;fontSize=18;" parent="1" vertex="1">
          <mxGeometry x="500" y="310" width="80" height="30" as="geometry" />
        </mxCell>
        <mxCell id="mjoYjnzcF-hZVxzns7M5-319" value="" style="shape=sumEllipse;perimeter=ellipsePerimeter;whiteSpace=wrap;html=1;backgroundOutline=1;labelBackgroundColor=#FFFFFF;sketch=0;fontSize=18;strokeColor=#9673a6;fillColor=#e1d5e7;" parent="1" vertex="1">
          <mxGeometry x="355" y="310" width="30" height="30" as="geometry" />
        </mxCell>
        <mxCell id="mjoYjnzcF-hZVxzns7M5-323" value="共享&lt;br&gt;物品塔" style="text;html=1;align=center;verticalAlign=middle;resizable=0;points=[];autosize=1;strokeColor=none;fillColor=none;fontSize=18;fontColor=#000000;dashed=1;" parent="1" vertex="1">
          <mxGeometry x="590" y="520" width="70" height="50" as="geometry" />
        </mxCell>
        <mxCell id="mjoYjnzcF-hZVxzns7M5-324" value="用户塔" style="text;html=1;align=center;verticalAlign=middle;resizable=0;points=[];autosize=1;strokeColor=none;fillColor=none;fontSize=18;fontColor=#000000;" parent="1" vertex="1">
          <mxGeometry x="1015" y="530" width="70" height="30" as="geometry" />
        </mxCell>
        <mxCell id="mjoYjnzcF-hZVxzns7M5-325" value="" style="rounded=1;whiteSpace=wrap;html=1;labelBackgroundColor=#FFFFFF;sketch=0;fontSize=18;fontColor=#000000;strokeColor=#FFB570;strokeWidth=0;fillColor=none;dashed=1;" parent="1" vertex="1">
          <mxGeometry x="920" y="590" width="100" height="30" as="geometry" />
        </mxCell>
        <mxCell id="mjoYjnzcF-hZVxzns7M5-334" value="" style="endArrow=classic;html=1;sketch=0;fontSize=18;fontColor=#000000;strokeColor=#000000;fillColor=#B2C9AB;exitX=0.5;exitY=0;exitDx=0;exitDy=0;rounded=0;dashed=1;entryX=0.5;entryY=1;entryDx=0;entryDy=0;" parent="1" source="SLGdrvwB5BfjY_QuqWB5-40" target="SLGdrvwB5BfjY_QuqWB5-20" edge="1">
          <mxGeometry width="50" height="50" relative="1" as="geometry">
            <mxPoint x="750" y="490" as="sourcePoint" />
            <mxPoint x="1090" y="480" as="targetPoint" />
          </mxGeometry>
        </mxCell>
        <mxCell id="mjoYjnzcF-hZVxzns7M5-336" value="" style="endArrow=classic;html=1;rounded=0;sketch=0;fontSize=18;fontColor=#000000;strokeColor=#000000;fillColor=#B2C9AB;dashed=1;entryX=0.5;entryY=1;entryDx=0;entryDy=0;" parent="1" target="SLGdrvwB5BfjY_QuqWB5-9" edge="1">
          <mxGeometry width="50" height="50" relative="1" as="geometry">
            <mxPoint x="950" y="520" as="sourcePoint" />
            <mxPoint x="1210" y="490" as="targetPoint" />
            <Array as="points" />
          </mxGeometry>
        </mxCell>
        <mxCell id="mjoYjnzcF-hZVxzns7M5-343" value="" style="endArrow=classic;html=1;rounded=0;dashed=1;sketch=0;fontSize=18;fontColor=#000000;strokeColor=#000000;fillColor=#B2C9AB;entryX=-0.056;entryY=0.55;entryDx=0;entryDy=0;entryPerimeter=0;" parent="1" target="mjoYjnzcF-hZVxzns7M5-315" edge="1">
          <mxGeometry width="50" height="50" relative="1" as="geometry">
            <mxPoint x="390" y="327" as="sourcePoint" />
            <mxPoint x="440" y="330" as="targetPoint" />
          </mxGeometry>
        </mxCell>
        <mxCell id="SLGdrvwB5BfjY_QuqWB5-51" value="" style="edgeStyle=orthogonalEdgeStyle;rounded=0;orthogonalLoop=1;jettySize=auto;html=1;entryX=0.5;entryY=1;entryDx=0;entryDy=0;" parent="1" source="mjoYjnzcF-hZVxzns7M5-348" target="SLGdrvwB5BfjY_QuqWB5-9" edge="1">
          <mxGeometry relative="1" as="geometry" />
        </mxCell>
        <mxCell id="SLGdrvwB5BfjY_QuqWB5-52" style="edgeStyle=orthogonalEdgeStyle;rounded=0;orthogonalLoop=1;jettySize=auto;html=1;exitX=0.5;exitY=0;exitDx=0;exitDy=0;entryX=0.5;entryY=1;entryDx=0;entryDy=0;" parent="1" source="mjoYjnzcF-hZVxzns7M5-348" target="SLGdrvwB5BfjY_QuqWB5-20" edge="1">
          <mxGeometry relative="1" as="geometry" />
        </mxCell>
        <mxCell id="mjoYjnzcF-hZVxzns7M5-348" value="用户偏好学习子模型" style="rounded=0;whiteSpace=wrap;html=1;labelBackgroundColor=none;sketch=0;fontSize=18;strokeColor=#d6b656;strokeWidth=2;fillColor=#fff2cc;" parent="1" vertex="1">
          <mxGeometry x="1115" y="520" width="115" height="60" as="geometry" />
        </mxCell>
        <mxCell id="mjoYjnzcF-hZVxzns7M5-382" value="" style="whiteSpace=wrap;html=1;aspect=fixed;rounded=0;labelBackgroundColor=none;sketch=0;fontSize=12;fontColor=#000000;strokeColor=#000000;strokeWidth=1;fillColor=none;direction=south;" parent="1" vertex="1">
          <mxGeometry width="20" as="geometry" />
        </mxCell>
        <mxCell id="mjoYjnzcF-hZVxzns7M5-404" value="" style="ellipse;whiteSpace=wrap;html=1;aspect=fixed;rounded=0;labelBackgroundColor=none;sketch=0;fontSize=13;fontColor=#000000;strokeColor=#A680B8;strokeWidth=1;fillColor=#B9E0A5;" parent="1" vertex="1">
          <mxGeometry width="10" as="geometry" />
        </mxCell>
        <mxCell id="SLGdrvwB5BfjY_QuqWB5-31" value="" style="group" parent="1" vertex="1" connectable="0">
          <mxGeometry x="680" y="520" width="60" height="20" as="geometry" />
        </mxCell>
        <mxCell id="SLGdrvwB5BfjY_QuqWB5-53" value="" style="group" parent="SLGdrvwB5BfjY_QuqWB5-31" vertex="1" connectable="0">
          <mxGeometry width="60" height="20" as="geometry" />
        </mxCell>
        <mxCell id="SLGdrvwB5BfjY_QuqWB5-28" value="" style="whiteSpace=wrap;html=1;aspect=fixed;labelBackgroundColor=#FFFFFF;sketch=0;fontSize=15;strokeColor=#d79b00;fillColor=#ffe6cc;" parent="SLGdrvwB5BfjY_QuqWB5-53" vertex="1">
          <mxGeometry width="20" height="20" as="geometry" />
        </mxCell>
        <mxCell id="SLGdrvwB5BfjY_QuqWB5-30" value="" style="whiteSpace=wrap;html=1;aspect=fixed;labelBackgroundColor=#FFFFFF;sketch=0;fontSize=15;strokeColor=#d79b00;fillColor=#ffe6cc;" parent="SLGdrvwB5BfjY_QuqWB5-53" vertex="1">
          <mxGeometry x="40" width="20" height="20" as="geometry" />
        </mxCell>
        <mxCell id="SLGdrvwB5BfjY_QuqWB5-29" value="" style="whiteSpace=wrap;html=1;aspect=fixed;labelBackgroundColor=#FFFFFF;sketch=0;fontSize=15;strokeColor=#d79b00;fillColor=#ffe6cc;" parent="SLGdrvwB5BfjY_QuqWB5-53" vertex="1">
          <mxGeometry x="20" width="20" height="20" as="geometry" />
        </mxCell>
        <mxCell id="SLGdrvwB5BfjY_QuqWB5-37" value="" style="endArrow=classic;html=1;rounded=0;exitX=0.5;exitY=0;exitDx=0;exitDy=0;entryX=0.5;entryY=1;entryDx=0;entryDy=0;" parent="1" source="mjoYjnzcF-hZVxzns7M5-279" target="SLGdrvwB5BfjY_QuqWB5-29" edge="1">
          <mxGeometry width="50" height="50" relative="1" as="geometry">
            <mxPoint x="760" y="550" as="sourcePoint" />
            <mxPoint x="810" y="500" as="targetPoint" />
          </mxGeometry>
        </mxCell>
        <mxCell id="SLGdrvwB5BfjY_QuqWB5-42" value="" style="group" parent="1" vertex="1" connectable="0">
          <mxGeometry x="800" y="520" width="60" height="20" as="geometry" />
        </mxCell>
        <mxCell id="SLGdrvwB5BfjY_QuqWB5-39" value="" style="whiteSpace=wrap;html=1;aspect=fixed;labelBackgroundColor=#FFFFFF;sketch=0;fontSize=15;strokeColor=#b85450;fillColor=#f8cecc;" parent="SLGdrvwB5BfjY_QuqWB5-42" vertex="1">
          <mxGeometry width="20" height="20" as="geometry" />
        </mxCell>
        <mxCell id="SLGdrvwB5BfjY_QuqWB5-40" value="" style="whiteSpace=wrap;html=1;aspect=fixed;labelBackgroundColor=#FFFFFF;sketch=0;fontSize=15;strokeColor=#b85450;fillColor=#f8cecc;" parent="SLGdrvwB5BfjY_QuqWB5-42" vertex="1">
          <mxGeometry x="20" width="20" height="20" as="geometry" />
        </mxCell>
        <mxCell id="SLGdrvwB5BfjY_QuqWB5-41" value="" style="whiteSpace=wrap;html=1;aspect=fixed;labelBackgroundColor=#FFFFFF;sketch=0;fontSize=15;strokeColor=#b85450;fillColor=#f8cecc;" parent="SLGdrvwB5BfjY_QuqWB5-42" vertex="1">
          <mxGeometry x="40" width="20" height="20" as="geometry" />
        </mxCell>
        <mxCell id="SLGdrvwB5BfjY_QuqWB5-43" value="" style="endArrow=classic;html=1;rounded=0;exitX=0.5;exitY=0;exitDx=0;exitDy=0;entryX=0.5;entryY=1;entryDx=0;entryDy=0;" parent="1" source="mjoYjnzcF-hZVxzns7M5-284" target="SLGdrvwB5BfjY_QuqWB5-40" edge="1">
          <mxGeometry width="50" height="50" relative="1" as="geometry">
            <mxPoint x="720" y="570" as="sourcePoint" />
            <mxPoint x="720" y="550" as="targetPoint" />
          </mxGeometry>
        </mxCell>
        <mxCell id="SLGdrvwB5BfjY_QuqWB5-47" value="" style="group" parent="1" vertex="1" connectable="0">
          <mxGeometry x="920" y="520" width="60" height="20" as="geometry" />
        </mxCell>
        <mxCell id="SLGdrvwB5BfjY_QuqWB5-44" value="" style="whiteSpace=wrap;html=1;aspect=fixed;labelBackgroundColor=#FFFFFF;sketch=0;fontSize=15;fontColor=#333333;strokeColor=#666666;fillColor=#f5f5f5;" parent="SLGdrvwB5BfjY_QuqWB5-47" vertex="1">
          <mxGeometry width="20" height="20" as="geometry" />
        </mxCell>
        <mxCell id="SLGdrvwB5BfjY_QuqWB5-45" value="" style="whiteSpace=wrap;html=1;aspect=fixed;labelBackgroundColor=#FFFFFF;sketch=0;fontSize=15;fontColor=#333333;strokeColor=#666666;fillColor=#f5f5f5;" parent="SLGdrvwB5BfjY_QuqWB5-47" vertex="1">
          <mxGeometry x="20" width="20" height="20" as="geometry" />
        </mxCell>
        <mxCell id="SLGdrvwB5BfjY_QuqWB5-46" value="" style="whiteSpace=wrap;html=1;aspect=fixed;labelBackgroundColor=#FFFFFF;sketch=0;fontSize=15;fontColor=#333333;strokeColor=#666666;fillColor=#f5f5f5;" parent="SLGdrvwB5BfjY_QuqWB5-47" vertex="1">
          <mxGeometry x="40" width="20" height="20" as="geometry" />
        </mxCell>
        <mxCell id="SLGdrvwB5BfjY_QuqWB5-48" value="" style="endArrow=classic;html=1;rounded=0;exitX=0.5;exitY=0;exitDx=0;exitDy=0;entryX=0.5;entryY=1;entryDx=0;entryDy=0;" parent="1" source="mjoYjnzcF-hZVxzns7M5-291" target="SLGdrvwB5BfjY_QuqWB5-45" edge="1">
          <mxGeometry width="50" height="50" relative="1" as="geometry">
            <mxPoint x="840" y="570" as="sourcePoint" />
            <mxPoint x="840" y="550" as="targetPoint" />
          </mxGeometry>
        </mxCell>
        <mxCell id="SLGdrvwB5BfjY_QuqWB5-54" value="" style="group" parent="1" vertex="1" connectable="0">
          <mxGeometry x="1000" y="430" width="60" height="20" as="geometry" />
        </mxCell>
        <mxCell id="SLGdrvwB5BfjY_QuqWB5-55" value="" style="whiteSpace=wrap;html=1;aspect=fixed;labelBackgroundColor=#FFFFFF;sketch=0;fontSize=15;strokeColor=#d79b00;fillColor=#ffe6cc;" parent="SLGdrvwB5BfjY_QuqWB5-54" vertex="1">
          <mxGeometry width="20" height="20" as="geometry" />
        </mxCell>
        <mxCell id="SLGdrvwB5BfjY_QuqWB5-56" value="" style="whiteSpace=wrap;html=1;aspect=fixed;labelBackgroundColor=#FFFFFF;sketch=0;fontSize=15;strokeColor=#d79b00;fillColor=#ffe6cc;" parent="SLGdrvwB5BfjY_QuqWB5-54" vertex="1">
          <mxGeometry x="40" width="20" height="20" as="geometry" />
        </mxCell>
        <mxCell id="SLGdrvwB5BfjY_QuqWB5-57" value="" style="whiteSpace=wrap;html=1;aspect=fixed;labelBackgroundColor=#FFFFFF;sketch=0;fontSize=15;strokeColor=#d79b00;fillColor=#ffe6cc;" parent="SLGdrvwB5BfjY_QuqWB5-54" vertex="1">
          <mxGeometry x="20" width="20" height="20" as="geometry" />
        </mxCell>
        <mxCell id="SLGdrvwB5BfjY_QuqWB5-58" value="" style="group" parent="1" vertex="1" connectable="0">
          <mxGeometry x="1060" y="430" width="60" height="20" as="geometry" />
        </mxCell>
        <mxCell id="SLGdrvwB5BfjY_QuqWB5-59" value="" style="whiteSpace=wrap;html=1;aspect=fixed;labelBackgroundColor=#FFFFFF;sketch=0;fontSize=15;strokeColor=#d79b00;fillColor=#ffe6cc;" parent="SLGdrvwB5BfjY_QuqWB5-58" vertex="1">
          <mxGeometry width="20" height="20" as="geometry" />
        </mxCell>
        <mxCell id="SLGdrvwB5BfjY_QuqWB5-60" value="" style="whiteSpace=wrap;html=1;aspect=fixed;labelBackgroundColor=#FFFFFF;sketch=0;fontSize=15;strokeColor=#d79b00;fillColor=#ffe6cc;" parent="SLGdrvwB5BfjY_QuqWB5-58" vertex="1">
          <mxGeometry x="40" width="20" height="20" as="geometry" />
        </mxCell>
        <mxCell id="SLGdrvwB5BfjY_QuqWB5-61" value="" style="whiteSpace=wrap;html=1;aspect=fixed;labelBackgroundColor=#FFFFFF;sketch=0;fontSize=15;strokeColor=#d79b00;fillColor=#ffe6cc;" parent="SLGdrvwB5BfjY_QuqWB5-58" vertex="1">
          <mxGeometry x="20" width="20" height="20" as="geometry" />
        </mxCell>
        <mxCell id="SLGdrvwB5BfjY_QuqWB5-62" value="" style="group" parent="1" vertex="1" connectable="0">
          <mxGeometry x="1140" y="430" width="120" height="20" as="geometry" />
        </mxCell>
        <mxCell id="SLGdrvwB5BfjY_QuqWB5-16" value="" style="whiteSpace=wrap;html=1;aspect=fixed;labelBackgroundColor=#FFFFFF;sketch=0;fontSize=15;strokeColor=#b85450;fillColor=#f8cecc;" parent="SLGdrvwB5BfjY_QuqWB5-62" vertex="1">
          <mxGeometry x="40" width="20" height="20" as="geometry" />
        </mxCell>
        <mxCell id="SLGdrvwB5BfjY_QuqWB5-19" value="" style="whiteSpace=wrap;html=1;aspect=fixed;labelBackgroundColor=#FFFFFF;sketch=0;fontSize=15;strokeColor=#b85450;fillColor=#f8cecc;" parent="SLGdrvwB5BfjY_QuqWB5-62" vertex="1">
          <mxGeometry width="20" height="20" as="geometry" />
        </mxCell>
        <mxCell id="SLGdrvwB5BfjY_QuqWB5-20" value="" style="whiteSpace=wrap;html=1;aspect=fixed;labelBackgroundColor=#FFFFFF;sketch=0;fontSize=15;strokeColor=#b85450;fillColor=#f8cecc;" parent="SLGdrvwB5BfjY_QuqWB5-62" vertex="1">
          <mxGeometry x="20" width="20" height="20" as="geometry" />
        </mxCell>
        <mxCell id="SLGdrvwB5BfjY_QuqWB5-8" value="" style="whiteSpace=wrap;html=1;aspect=fixed;labelBackgroundColor=#FFFFFF;sketch=0;fontSize=15;fontColor=#333333;strokeColor=#666666;fillColor=#f5f5f5;" parent="SLGdrvwB5BfjY_QuqWB5-62" vertex="1">
          <mxGeometry x="60" width="20" height="20" as="geometry" />
        </mxCell>
        <mxCell id="SLGdrvwB5BfjY_QuqWB5-9" value="" style="whiteSpace=wrap;html=1;aspect=fixed;labelBackgroundColor=#FFFFFF;sketch=0;fontSize=15;fontColor=#333333;strokeColor=#666666;fillColor=#f5f5f5;" parent="SLGdrvwB5BfjY_QuqWB5-62" vertex="1">
          <mxGeometry x="80" width="20" height="20" as="geometry" />
        </mxCell>
        <mxCell id="SLGdrvwB5BfjY_QuqWB5-10" value="" style="whiteSpace=wrap;html=1;aspect=fixed;labelBackgroundColor=#FFFFFF;sketch=0;fontSize=15;fontColor=#333333;strokeColor=#666666;fillColor=#f5f5f5;" parent="SLGdrvwB5BfjY_QuqWB5-62" vertex="1">
          <mxGeometry x="100" width="20" height="20" as="geometry" />
        </mxCell>
        <mxCell id="SLGdrvwB5BfjY_QuqWB5-63" value="" style="endArrow=classic;html=1;sketch=0;fontSize=18;fontColor=#000000;strokeColor=#000000;fillColor=#B2C9AB;exitX=0.5;exitY=0;exitDx=0;exitDy=0;rounded=0;dashed=1;" parent="1" source="SLGdrvwB5BfjY_QuqWB5-29" edge="1">
          <mxGeometry width="50" height="50" relative="1" as="geometry">
            <mxPoint x="840" y="530" as="sourcePoint" />
            <mxPoint x="1060" y="450" as="targetPoint" />
          </mxGeometry>
        </mxCell>
        <mxCell id="SLGdrvwB5BfjY_QuqWB5-64" value="" style="endArrow=classic;html=1;rounded=0;sketch=0;fontSize=18;fontColor=#000000;strokeColor=#000000;fillColor=#B2C9AB;exitX=0;exitY=0;exitDx=0;exitDy=0;entryX=0.5;entryY=1;entryDx=0;entryDy=0;" parent="1" source="SLGdrvwB5BfjY_QuqWB5-59" target="SLGdrvwB5BfjY_QuqWB5-66" edge="1">
          <mxGeometry width="50" height="50" relative="1" as="geometry">
            <mxPoint x="1055" y="415" as="sourcePoint" />
            <mxPoint x="1140" y="400" as="targetPoint" />
          </mxGeometry>
        </mxCell>
        <mxCell id="SLGdrvwB5BfjY_QuqWB5-65" value="" style="endArrow=classic;html=1;rounded=0;sketch=0;fontSize=18;fontColor=#000000;strokeColor=#000000;fillColor=#B2C9AB;exitX=0;exitY=0;exitDx=0;exitDy=0;entryX=0.5;entryY=1;entryDx=0;entryDy=0;" parent="1" source="SLGdrvwB5BfjY_QuqWB5-8" target="SLGdrvwB5BfjY_QuqWB5-66" edge="1">
          <mxGeometry width="50" height="50" relative="1" as="geometry">
            <mxPoint x="1190" y="390.0000000000001" as="sourcePoint" />
            <mxPoint x="1140" y="400" as="targetPoint" />
          </mxGeometry>
        </mxCell>
        <mxCell id="SLGdrvwB5BfjY_QuqWB5-66" value="" style="ellipse;whiteSpace=wrap;html=1;aspect=fixed;labelBackgroundColor=#FFFFFF;sketch=0;fontSize=18;fontColor=#000000;strokeColor=#000000;fillColor=#A9C4EB;" parent="1" vertex="1">
          <mxGeometry x="1125" y="370" width="30" height="30" as="geometry" />
        </mxCell>
        <mxCell id="SLGdrvwB5BfjY_QuqWB5-67" value="PCTR 拟合加权点击率" style="text;html=1;align=center;verticalAlign=middle;resizable=0;points=[];autosize=1;strokeColor=none;fillColor=none;fontSize=18;fontColor=#000000;" parent="1" vertex="1">
          <mxGeometry x="1160" y="370" width="200" height="30" as="geometry" />
        </mxCell>
        <mxCell id="3_Bsj9PWr-W3HYoIucsI-1" value="" style="endArrow=classic;html=1;rounded=0;sketch=0;fontSize=18;fontColor=#000000;strokeColor=#000000;fillColor=#B2C9AB;entryX=1.017;entryY=0.484;entryDx=0;entryDy=0;entryPerimeter=0;exitX=0;exitY=0.5;exitDx=0;exitDy=0;" parent="1" source="mjoYjnzcF-hZVxzns7M5-294" target="mjoYjnzcF-hZVxzns7M5-315" edge="1">
          <mxGeometry width="50" height="50" relative="1" as="geometry">
            <mxPoint x="720" y="530" as="sourcePoint" />
            <mxPoint x="755" y="350" as="targetPoint" />
          </mxGeometry>
        </mxCell>
        <mxCell id="v4kjNWBDEKQWqs3jPrCz-1" value="学习CTR和CTCVR&lt;br&gt;的加权和权重a和b" style="text;html=1;align=center;verticalAlign=middle;resizable=0;points=[];autosize=1;strokeColor=none;fillColor=none;fontSize=18;fontColor=#000000;" vertex="1" parent="1">
          <mxGeometry x="1230" y="525" width="170" height="50" as="geometry" />
        </mxCell>
      </root>
    </mxGraphModel>
  </diagram>
</mxfile>
